<svg width="710" height="185" xmlns="http://www.w3.org/2000/svg" xmlns:xlink="http://www.w3.org/1999/xlink" overflow="hidden"><g transform="translate(-261 -330)"><rect x="262.5" y="331.5" width="708" height="182" stroke="#172C51" stroke-width="1.33333" stroke-miterlimit="8" fill="#FFFFFF"/><text font-family="Times New Roman,Times New Roman_MSFontService,sans-serif" font-weight="400" font-size="19" transform="translate(553.081 354)">RuxOS Modules</text><rect x="278.5" y="375.5" width="331" height="124" stroke="#000000" stroke-width="1.33333" stroke-miterlimit="8" fill="#FFFFFF"/><text font-family="SimSun,SimSun_MSFontService,sans-serif" font-weight="400" font-size="19" transform="translate(406.114 397)">主干构件</text><path d="M286.5 419.167C286.5 416.589 288.589 414.5 291.167 414.5L434.833 414.5C437.411 414.5 439.5 416.589 439.5 419.167L439.5 437.833C439.5 440.411 437.411 442.5 434.833 442.5L291.167 442.5C288.589 442.5 286.5 440.411 286.5 437.833Z" stroke="#172C51" stroke-width="1.33333" stroke-miterlimit="8" fill="#FFFFFF" fill-rule="evenodd"/><text font-family="Times New Roman,Times New Roman_MSFontService,sans-serif" font-weight="400" font-size="19" transform="translate(321.043 435)">ruxruntime</text><path d="M448.5 419.167C448.5 416.589 450.589 414.5 453.167 414.5L595.833 414.5C598.411 414.5 600.5 416.589 600.5 419.167L600.5 437.833C600.5 440.411 598.411 442.5 595.833 442.5L453.167 442.5C450.589 442.5 448.5 440.411 448.5 437.833Z" stroke="#172C51" stroke-width="1.33333" stroke-miterlimit="8" fill="#FFFFFF" fill-rule="evenodd"/><text font-family="Times New Roman,Times New Roman_MSFontService,sans-serif" font-weight="400" font-size="19" transform="translate(500.121 435)">ruxhal</text><path d="M286.5 460.167C286.5 457.589 288.589 455.5 291.167 455.5L434.833 455.5C437.411 455.5 439.5 457.589 439.5 460.167L439.5 478.833C439.5 481.411 437.411 483.5 434.833 483.5L291.167 483.5C288.589 483.5 286.5 481.411 286.5 478.833Z" stroke="#172C51" stroke-width="1.33333" stroke-miterlimit="8" fill="#FFFFFF" fill-rule="evenodd"/><text font-family="Times New Roman,Times New Roman_MSFontService,sans-serif" font-weight="400" font-size="19" transform="translate(326.209 475)">ruxconfig</text><path d="M449.5 460.167C449.5 457.589 451.589 455.5 454.167 455.5L594.833 455.5C597.411 455.5 599.5 457.589 599.5 460.167L599.5 478.833C599.5 481.411 597.411 483.5 594.833 483.5L454.167 483.5C451.589 483.5 449.5 481.411 449.5 478.833Z" stroke="#172C51" stroke-width="1.33333" stroke-miterlimit="8" fill="#FFFFFF" fill-rule="evenodd"/><text font-family="Times New Roman,Times New Roman_MSFontService,sans-serif" font-weight="400" font-size="19" transform="translate(516.927 475)">...</text><rect x="629.5" y="375.5" width="324" height="124" stroke="#000000" stroke-width="1.33333" stroke-miterlimit="8" fill="#FFFFFF"/><text font-family="SimSun,SimSun_MSFontService,sans-serif" font-weight="400" font-size="19" transform="translate(753.819 397)">功能构件</text><path d="M639.5 418.167C639.5 415.589 641.589 413.5 644.167 413.5L775.833 413.5C778.411 413.5 780.5 415.589 780.5 418.167L780.5 436.833C780.5 439.411 778.411 441.5 775.833 441.5L644.167 441.5C641.589 441.5 639.5 439.411 639.5 436.833Z" stroke="#172C51" stroke-width="1.33333" stroke-miterlimit="8" fill="#FFFFFF" fill-rule="evenodd"/><text font-family="Times New Roman,Times New Roman_MSFontService,sans-serif" font-weight="400" font-size="19" transform="translate(690.376 434)">ruxfs</text><path d="M789.5 419.167C789.5 416.589 791.589 414.5 794.167 414.5L937.833 414.5C940.411 414.5 942.5 416.589 942.5 419.167L942.5 437.833C942.5 440.411 940.411 442.5 937.833 442.5L794.167 442.5C791.589 442.5 789.5 440.411 789.5 437.833Z" stroke="#172C51" stroke-width="1.33333" stroke-miterlimit="8" fill="#FFFFFF" fill-rule="evenodd"/><text font-family="Times New Roman,Times New Roman_MSFontService,sans-serif" font-weight="400" font-size="19" transform="translate(830.923 435)">ruxdriver</text><path d="M639.5 459.167C639.5 456.589 641.589 454.5 644.167 454.5L775.833 454.5C778.411 454.5 780.5 456.589 780.5 459.167L780.5 477.833C780.5 480.411 778.411 482.5 775.833 482.5L644.167 482.5C641.589 482.5 639.5 480.411 639.5 477.833Z" stroke="#172C51" stroke-width="1.33333" stroke-miterlimit="8" fill="#FFFFFF" fill-rule="evenodd"/><text font-family="Times New Roman,Times New Roman_MSFontService,sans-serif" font-weight="400" font-size="19" transform="translate(682.043 475)">ruxtask</text><path d="M789.5 460.167C789.5 457.589 791.589 455.5 794.167 455.5L937.833 455.5C940.411 455.5 942.5 457.589 942.5 460.167L942.5 478.833C942.5 481.411 940.411 483.5 937.833 483.5L794.167 483.5C791.589 483.5 789.5 481.411 789.5 478.833Z" stroke="#172C51" stroke-width="1.33333" stroke-miterlimit="8" fill="#FFFFFF" fill-rule="evenodd"/><text font-family="Times New Roman,Times New Roman_MSFontService,sans-serif" font-weight="400" font-size="19" transform="translate(858.59 475)">...</text></g></svg>