<svg width="1077" height="583" xmlns="http://www.w3.org/2000/svg" xmlns:xlink="http://www.w3.org/1999/xlink" overflow="hidden"><g transform="translate(-76 -69)"><rect x="353.5" y="269.5" width="249" height="64" stroke="#172C51" stroke-width="1.33333" stroke-miterlimit="8" fill="#FFFFFF"/><text font-family="Times New Roman,Times New Roman_MSFontService,sans-serif" font-weight="400" font-size="27" transform="translate(410.886 311)">top makefile</text><rect x="353.5" y="375.5" width="249" height="64" stroke="#172C51" stroke-width="1.33333" stroke-miterlimit="8" fill="#FFFFFF"/><text font-family="Times New Roman,Times New Roman_MSFontService,sans-serif" font-weight="400" font-size="27" transform="translate(430.053 417)">build.mk</text><rect x="354.5" y="481.5" width="249" height="64" stroke="#172C51" stroke-width="1.33333" stroke-miterlimit="8" fill="#FFFFFF"/><text font-family="Times New Roman,Times New Roman_MSFontService,sans-serif" font-weight="400" font-size="27" transform="translate(428.617 523)">qemu.mk</text><path d="M460.5 250 469.75 250 469.75 228.5 488.25 228.5 488.25 250 497.5 250 479 268.5Z" stroke="#172C51" stroke-width="1.33333" stroke-miterlimit="8" fill="#FFFFFF" fill-rule="evenodd"/><rect x="352.5" y="587.5" width="250" height="63" stroke="#172C51" stroke-width="1.33333" stroke-miterlimit="8" fill="#FFFFFF"/><text font-family="Times New Roman,Times New Roman_MSFontService,sans-serif" font-weight="400" font-size="27" transform="translate(438.202 629)">test.mk</text><path d="M77.5001 490.833C77.5001 484.574 82.5742 479.5 88.8334 479.5L316.167 479.5C322.426 479.5 327.5 484.574 327.5 490.833L327.5 536.167C327.5 542.426 322.426 547.5 316.167 547.5L88.8334 547.5C82.5742 547.5 77.5001 542.426 77.5001 536.167Z" stroke="#172C51" stroke-width="1.33333" stroke-miterlimit="8" fill="#FFFFFF" fill-rule="evenodd"/><text font-family="SimSun,SimSun_MSFontService,sans-serif" font-weight="400" font-size="21" transform="translate(109.036 521)">组织</text><text font-family="Times New Roman,Times New Roman_MSFontService,sans-serif" font-weight="400" font-size="21" transform="translate(157.036 521)">qemu</text><text font-family="SimSun,SimSun_MSFontService,sans-serif" font-weight="400" font-size="21" transform="translate(209.869 521)">启动参数</text><path d="M78.5001 593.834C78.5001 587.574 83.5743 582.5 89.8336 582.5L315.166 582.5C321.426 582.5 326.5 587.574 326.5 593.834L326.5 639.166C326.5 645.426 321.426 650.5 315.166 650.5L89.8336 650.5C83.5743 650.5 78.5001 645.426 78.5001 639.166Z" stroke="#172C51" stroke-width="1.33333" stroke-miterlimit="8" fill="#FFFFFF" fill-rule="evenodd"/><text font-family="SimSun,SimSun_MSFontService,sans-serif" font-weight="400" font-size="21" transform="translate(138.119 624)">调用测试脚本</text><path d="M78.5001 384.667C78.5001 377.947 83.9473 372.5 90.6669 372.5L315.333 372.5C322.053 372.5 327.5 377.947 327.5 384.667L327.5 433.333C327.5 440.053 322.053 445.5 315.333 445.5L90.6669 445.5C83.9473 445.5 78.5001 440.053 78.5001 433.333Z" stroke="#172C51" stroke-width="1.33333" stroke-miterlimit="8" fill="#FFFFFF" fill-rule="evenodd"/><text font-family="SimSun,SimSun_MSFontService,sans-serif" font-weight="400" font-size="21" transform="translate(128.046 404)">面向应用，构建</text><text font-family="Times New Roman,Times New Roman_MSFontService,sans-serif" font-weight="400" font-size="21" transform="translate(159.713 429)">OS Image</text><path d="M78.5001 280.5C78.5001 273.873 83.8727 268.5 90.5002 268.5L315.5 268.5C322.127 268.5 327.5 273.873 327.5 280.5L327.5 328.5C327.5 335.127 322.127 340.5 315.5 340.5L90.5002 340.5C83.8727 340.5 78.5001 335.127 78.5001 328.5Z" stroke="#172C51" stroke-width="1.33333" stroke-miterlimit="8" fill="#FFFFFF" fill-rule="evenodd"/><text font-family="SimSun,SimSun_MSFontService,sans-serif" font-weight="400" font-size="21" transform="translate(97.3795 299)">顶级</text><text font-family="Times New Roman,Times New Roman_MSFontService,sans-serif" font-weight="400" font-size="21" transform="translate(145.38 299)">Makefile</text><text font-family="SimSun,SimSun_MSFontService,sans-serif" font-weight="400" font-size="21" transform="translate(222.713 299)">，组织整</text><text font-family="SimSun,SimSun_MSFontService,sans-serif" font-weight="400" font-size="21" transform="translate(149.38 324)">体构建流程</text><path d="M77.5001 173.5C77.5001 166.873 82.8727 161.5 89.5003 161.5L315.5 161.5C322.127 161.5 327.5 166.873 327.5 173.5L327.5 221.5C327.5 228.127 322.127 233.5 315.5 233.5L89.5003 233.5C82.8727 233.5 77.5001 228.127 77.5001 221.5Z" stroke="#172C51" stroke-width="1.33333" stroke-miterlimit="8" fill="#FFFFFF" fill-rule="evenodd"/><text font-family="SimSun,SimSun_MSFontService,sans-serif" font-weight="400" font-size="21" transform="translate(95.4528 193)">指定架构、目标应用、</text><text font-family="SimSun,SimSun_MSFontService,sans-serif" font-weight="400" font-size="21" transform="translate(109.866 217)">日志级别及</text><text font-family="Times New Roman,Times New Roman_MSFontService,sans-serif" font-weight="400" font-size="21" transform="translate(221.866 217)">Features</text><path d="M352.5 80.3335C352.5 74.9026 356.903 70.5001 362.333 70.5001L905.667 70.5001C911.097 70.5001 915.5 74.9026 915.5 80.3335L915.5 119.667C915.5 125.097 911.097 129.5 905.667 129.5L362.333 129.5C356.903 129.5 352.5 125.097 352.5 119.667Z" stroke="#172C51" stroke-width="1.33333" stroke-miterlimit="8" fill="#FFFFFF" fill-rule="evenodd"/><text font-family="Times New Roman,Times New Roman_MSFontService,sans-serif" font-weight="400" font-size="24" transform="translate(558.069 108)">Make</text><text font-family="SimSun,SimSun_MSFontService,sans-serif" font-weight="400" font-size="24" transform="translate(612.736 108)">构建工具</text><path d="M335.5 145.5 932.732 145.5" stroke="#000000" stroke-width="1.33333" stroke-miterlimit="8" fill="none" fill-rule="evenodd"/><rect x="355.5" y="164.5" width="249" height="64" stroke="#172C51" stroke-width="1.33333" stroke-miterlimit="8" fill="#FFFFFF"/><text font-family="SimSun,SimSun_MSFontService,sans-serif" font-weight="400" font-size="24" transform="translate(431.602 204)">环境变量</text><path d="M664.5 531.5C647.655 531.5 634 529.224 634 526.417L634 411.526C634 408.719 620.345 406.443 603.5 406.443 620.345 406.443 634 404.167 634 401.36L634 295.583C634 292.776 647.656 290.5 664.5 290.5" stroke="#000000" stroke-width="0.666667" stroke-miterlimit="8" fill="none" fill-rule="evenodd"/><rect x="665.5" y="259.5" width="250" height="64" stroke="#172C51" stroke-width="1.33333" stroke-miterlimit="8" fill="#FFFFFF"/><text font-family="Times New Roman,Times New Roman_MSFontService,sans-serif" font-weight="400" font-size="27" transform="translate(740.404 301)">cargo.mk</text><rect x="665.5" y="375.5" width="250" height="64" stroke="#172C51" stroke-width="1.33333" stroke-miterlimit="8" fill="#FFFFFF"/><text font-family="Times New Roman,Times New Roman_MSFontService,sans-serif" font-weight="400" font-size="27" transform="translate(723.247 417)">feartures.mk</text><rect x="665.5" y="490.5" width="250" height="75" stroke="#172C51" stroke-width="1.33333" stroke-miterlimit="8" fill="#FFFFFF"/><text font-family="Times New Roman,Times New Roman_MSFontService,sans-serif" font-weight="400" font-size="27" transform="translate(722.606 522)">build_c.mk /</text><text font-family="Times New Roman,Times New Roman_MSFontService,sans-serif" font-weight="400" font-size="27" transform="translate(709.686 554)">build_musl.mk</text><path d="M940.5 269.167C940.5 263.276 945.276 258.5 951.167 258.5L1140.83 258.5C1146.72 258.5 1151.5 263.276 1151.5 269.167L1151.5 311.833C1151.5 317.724 1146.72 322.5 1140.83 322.5L951.167 322.5C945.276 322.5 940.5 317.724 940.5 311.833Z" stroke="#172C51" stroke-width="1.33333" stroke-miterlimit="8" fill="#FFFFFF" fill-rule="evenodd"/><text font-family="SimSun,SimSun_MSFontService,sans-serif" font-weight="400" font-size="21" transform="translate(966.357 299)">构建</text><text font-family="Times New Roman,Times New Roman_MSFontService,sans-serif" font-weight="400" font-size="21" transform="translate(1014.36 299)">RuxOS</text><text font-family="SimSun,SimSun_MSFontService,sans-serif" font-weight="400" font-size="21" transform="translate(1082.36 299)">内核</text><path d="M940.5 385.167C940.5 379.276 945.276 374.5 951.167 374.5L1138.83 374.5C1144.72 374.5 1149.5 379.276 1149.5 385.167L1149.5 427.833C1149.5 433.724 1144.72 438.5 1138.83 438.5L951.167 438.5C945.276 438.5 940.5 433.724 940.5 427.833Z" stroke="#172C51" stroke-width="1.33333" stroke-miterlimit="8" fill="#FFFFFF" fill-rule="evenodd"/><text font-family="SimSun,SimSun_MSFontService,sans-serif" font-weight="400" font-size="21" transform="translate(960.264 401)">传递</text><text font-family="Times New Roman,Times New Roman_MSFontService,sans-serif" font-weight="400" font-size="21" transform="translate(1008.26 401)">Features</text><text font-family="SimSun,SimSun_MSFontService,sans-serif" font-weight="400" font-size="21" transform="translate(1086.1 401)">以选</text><text font-family="SimSun,SimSun_MSFontService,sans-serif" font-weight="400" font-size="21" transform="translate(991.178 426)">择相应构件</text><path d="M940.5 502.334C940.5 495.246 946.246 489.5 953.334 489.5L1138.67 489.5C1145.75 489.5 1151.5 495.246 1151.5 502.334L1151.5 553.667C1151.5 560.754 1145.75 566.5 1138.67 566.5L953.334 566.5C946.246 566.5 940.5 560.754 940.5 553.667Z" stroke="#172C51" stroke-width="1.33333" stroke-miterlimit="8" fill="#FFFFFF" fill-rule="evenodd"/><text font-family="SimSun,SimSun_MSFontService,sans-serif" font-weight="400" font-size="21" transform="translate(967.357 523)">构建</text><text font-family="Times New Roman,Times New Roman_MSFontService,sans-serif" font-weight="400" font-size="21" transform="translate(1015.36 523)">ruxlibc</text><text font-family="SimSun,SimSun_MSFontService,sans-serif" font-weight="400" font-size="21" transform="translate(1081.36 523)">库或</text><text font-family="Times New Roman,Times New Roman_MSFontService,sans-serif" font-weight="400" font-size="21" transform="translate(997.27 548)">ruxmusl</text><text font-family="SimSun,SimSun_MSFontService,sans-serif" font-weight="400" font-size="21" transform="translate(1072.77 548)">库</text><path d="M458.5 355.5 468 355.5 468 333.5 487 333.5 487 355.5 496.5 355.5 477.5 374.5Z" stroke="#172C51" stroke-width="1.33333" stroke-miterlimit="8" fill="#FFFFFF" fill-rule="evenodd"/><path d="M458.5 461.5 468 461.5 468 440.5 487 440.5 487 461.5 496.5 461.5 477.5 480.5Z" stroke="#172C51" stroke-width="1.33333" stroke-miterlimit="8" fill="#FFFFFF" fill-rule="evenodd"/><path d="M458.5 567.5 468 567.5 468 546.5 487 546.5 487 567.5 496.5 567.5 477.5 586.5Z" stroke="#172C51" stroke-width="1.33333" stroke-miterlimit="8" fill="#FFFFFF" fill-rule="evenodd"/><path d="M770.5 355.5 780 355.5 780 323.5 799 323.5 799 355.5 808.5 355.5 789.5 374.5Z" stroke="#172C51" stroke-width="1.33333" stroke-miterlimit="8" fill="#FFFFFF" fill-rule="evenodd"/><path d="M770.5 470.5 780 470.5 780 439.5 799 439.5 799 470.5 808.5 470.5 789.5 489.5Z" stroke="#172C51" stroke-width="1.33333" stroke-miterlimit="8" fill="#FFFFFF" fill-rule="evenodd"/></g></svg>