<svg width="314.99999999999994" height="165" xmlns="http://www.w3.org/2000/svg">
 <g>
  <title>Layer 1</title>
  <g id="svg_1" stroke="null">
   <path d="m90.43419,90.46305l-23.521,0l-1.525,0.075l-4.404,1.106l-3.999,2.225l-3.365,3.071l-2.532,3.778l-1.414,4.332l-6.152,34.559l13.414,0l6.538,-36.697l0.208,-0.783l2.821,-2.885l1.573,-0.293l20.846,0l1.512,-8.488z" fill="#23165C" fill-rule="evenodd" id="svg_2" stroke="null"/>
   <path d="m144.56119,90.47205l-13.518,0l-6.575,36.892l-0.212,0.78l-3.572,3.007l-0.8,0.072l-13.283,0l-3.279,-3.075l0.066,-0.784l6.577,-36.901l-13.415,0l-6.191,34.763l-0.186,1.452l-0.039,1.414l0.113,1.371l1.796,4.889l3.63,3.513l3.793,1.469l2.861,0.284l18.74,0l4.493,-0.639l4.155,-1.839l3.595,-2.788l2.882,-3.567l1.846,-4.103l0.333,-1.447l6.19,-34.763z" fill="#23165C" fill-rule="evenodd" id="svg_3" stroke="null"/>
   <path d="m163.14819,31.13705l-0.284,-4.961l-0.995,-4.862l-1.69,-4.684l-2.371,-4.423l-3.038,-4.083l-3.689,-3.661l0.01,0.019l0.618,4.889l0.013,4.825l-0.568,4.72l-1.119,4.57l-1.643,4.378l-2.137,4.146l-2.605,3.868l-3.045,3.549l-3.455,3.186l-3.84,2.784l-4.196,2.336l-4.521,1.846l-4.822,1.315l-4.995,0.724l-4.936,0.105l-4.835,-0.485l-5.252,-1.171l-1.859,-1.836l-1.956,-1.761l-4.217,-3.284l-4.339,-2.772l-4.494,-2.334l-4.621,-1.903l-4.72,-1.475l-4.791,-1.051l-4.834,-0.633l-4.851,-0.218l-4.838,0.19l-4.797,0.596l-4.729,0.995l-4.633,1.391l-4.508,1.781l-4.358,2.168l-4.176,2.549l-3.969,2.926l-3.734,3.298l-3.469,3.666l-3.179,4.029l-2.8,4.294l-2.359,4.448l-1.922,4.573l-1.491,4.672l-1.062,4.741l-0.639,4.785l-0.221,4.801l0.193,4.788l0.601,4.748l1.006,4.681l1.405,4.584l1.8,4.463l2.19,4.312l2.576,4.134l2.956,3.928l3.333,3.695l3.703,3.434l4.071,3.146l5.102,3.201l5.307,2.61l-3.337,-3.949l-2.924,-4.192l-2.506,-4.404l-2.084,-4.582l-1.657,-4.731l-1.224,-4.848l-0.785,-4.932l-0.343,-4.988l0.108,-5.01l0.562,-5l1.022,-4.962l1.486,-4.888l1.957,-4.786l2.433,-4.651l2.913,-4.486l3.291,-4.156l3.599,-3.77l3.88,-3.375l4.129,-2.978l4.346,-2.574l4.534,-2.166l4.689,-1.752l4.817,-1.333l4.909,-0.912l4.975,-0.481l5.006,-0.049l5.01,0.391l4.98,0.834l4.922,1.284l4.83,1.737l1.787,2.26l1.991,2.126l4.592,3.795l4.445,2.608l4.662,1.891l4.808,1.187l4.877,0.497l4.87,-0.182l4.788,-0.847l4.633,-1.497l4.402,-2.136l4.094,-2.761l3.713,-3.371l3.256,-3.97l2.705,-4.535l1.935,-4.763l1.182,-4.908l0.44,-4.975z" fill="#23165C" fill-rule="evenodd" id="svg_4" stroke="null"/>
   <path d="m291.48019,139.40305l-19.28,0l-1.436,-0.075l-3.942,-1.109l-4.026,-3.111l-2.242,-4.556l-0.367,-2.697l0.038,-1.414l3.709,-21.565l1.384,-4.278l2.484,-3.831l3.244,-3.018l3.94,-2.149l4.332,-1.066l1.462,-0.071l19.281,0l4.195,0.641l4.38,2.649l2.715,4.229l0.285,0.894l-29.597,0l-0.797,0.073l-3.286,2.383l-4.793,25.717l-0.073,0.831l0.087,0.756l3.235,2.382l29.553,0l-0.545,0.804l-3.036,3.286l-3.701,2.475l-4.223,1.522l-1.477,0.223l-1.503,0.075z" fill="#23165C" fill-rule="evenodd" id="svg_5" stroke="null"/>
   <path d="m305.96519,131.01805l-15.753,0l0.831,-0.071l0.783,-0.212l2.808,-2.855l4.455,-25.035l0.066,-0.784l-0.081,-0.734l-3.234,-2.451l15.796,0l0.119,0.372l0.008,0.019l0.274,1.331l0.126,1.391l-0.028,1.427l-0.18,1.46l-3.527,20.114l-1.408,4.246l-0.745,1.325l-0.31,0.457z" fill="#23165C" fill-rule="evenodd" id="svg_6" stroke="null"/>
   <path d="m193.56419,139.41805l-15.13,-25.239l-14.2,-23.716l-13.983,0l14.059,23.716l-24.123,25.239l14.115,0l15.444,-16.192l9.703,16.192l14.115,0z" fill="#23165C" fill-rule="evenodd" id="svg_7" stroke="null"/>
   <path d="m201.14219,90.46305l-14.114,0l-11.487,11.942l5.454,9.093l20.147,-21.035z" fill="#23165C" fill-rule="evenodd" id="svg_8" stroke="null"/>
   <text fill="#23165B" font-family="Arial,Arial_MSFontService,sans-serif" font-style="italic" font-weight="700" font-size="92" y="136.46305" x="201.30618" id="svg_9" stroke="null">g</text>
  </g>
  <rect fill="#fff" stroke="#000" x="254.00653" y="136.98321" width="0.38462" height="0" id="svg_11"/>
 </g>

</svg>