<svg width="956" height="542" xmlns="http://www.w3.org/2000/svg" xmlns:xlink="http://www.w3.org/1999/xlink" overflow="hidden"><g transform="translate(-94 -114)"><rect x="96.5001" y="163.5" width="239" height="492" stroke="#000000" stroke-width="1.33333" stroke-miterlimit="8" fill="#E7E6E6"/><rect x="125.5" y="186.5" width="181" height="120" stroke="#2F528F" stroke-width="1.33333" stroke-miterlimit="8" fill="#FFFFFF"/><text font-family="DengXian,DengXian_MSFontService,sans-serif" font-weight="700" font-size="24" transform="translate(193.27 254)">APP</text><rect x="125.5" y="345.5" width="181" height="285" stroke="#2F528F" stroke-width="1.33333" stroke-miterlimit="8" fill="#FFFFFF"/><text font-family="DengXian,DengXian_MSFontService,sans-serif" font-weight="700" font-size="24" transform="translate(179.541 495)">RuxOS</text><path d="M0 0 287.548 0.0410499" stroke="#000000" stroke-width="0.666667" stroke-miterlimit="8" stroke-dasharray="5.33333 2" fill="none" fill-rule="evenodd" transform="matrix(-1 0 0 1 747.048 160.5)"/><path d="M356.5 244 424.5 244 424.5 234.5 443.5 253.5 424.5 272.5 424.5 263 356.5 263Z" stroke="#2F528F" stroke-width="1.33333" stroke-miterlimit="8" fill="#FFFFFF" fill-rule="evenodd"/><path d="M354.5 478 423.5 478 423.5 468.5 442.5 487.5 423.5 506.5 423.5 497 354.5 497Z" stroke="#2F528F" stroke-width="1.33333" stroke-miterlimit="8" fill="#FFFFFF" fill-rule="evenodd"/><rect x="474.5" y="198.5" width="255" height="86" stroke="#2F528F" stroke-width="1.33333" stroke-miterlimit="8" fill="#FFFFFF"/><text font-family="DengXian,DengXian_MSFontService,sans-serif" font-weight="400" font-size="24" transform="translate(558.483 249)">Makefile</text><rect x="476.5" y="361.5" width="255" height="269" stroke="#2F528F" stroke-width="1.33333" stroke-miterlimit="8" fill="#FFFFFF"/><text font-family="DengXian,DengXian_MSFontService,sans-serif" font-weight="400" font-size="24" transform="translate(537.008 402)">Top Makefile</text><text font-family="DengXian,DengXian_MSFontService,sans-serif" font-weight="400" font-size="24" transform="translate(559.674 431)">Build.mk</text><text font-family="DengXian,DengXian_MSFontService,sans-serif" font-weight="400" font-size="24" transform="translate(553.261 460)">Qemu.mk</text><text font-family="DengXian,DengXian_MSFontService,sans-serif" font-weight="400" font-size="24" transform="translate(564.008 489)">Test.mk</text><text font-family="DengXian,DengXian_MSFontService,sans-serif" font-weight="400" font-size="24" transform="translate(553.841 518)">Cargo.mk</text><text font-family="DengXian,DengXian_MSFontService,sans-serif" font-weight="400" font-size="24" transform="translate(541.674 546)">Features.mk</text><text font-family="DengXian,DengXian_MSFontService,sans-serif" font-weight="400" font-size="24" transform="translate(549.261 575)">Build_c.mk</text><text font-family="DengXian,DengXian_MSFontService,sans-serif" font-weight="400" font-size="24" transform="translate(530.428 604)">Build_musl.mk</text><path d="M433.5 323C433.5 298.976 512.97 279.5 611 279.5 709.031 279.5 788.5 298.976 788.5 323 788.5 347.024 709.031 366.5 611 366.5 512.97 366.5 433.5 347.024 433.5 323Z" stroke="#172C51" stroke-width="1.33333" stroke-miterlimit="8" fill="#FFFFFF" fill-rule="evenodd"/><text font-family="DengXian,DengXian_MSFontService,sans-serif" font-weight="400" font-size="24" transform="translate(495.402 330)">axbuild.mk</text><text font-family="DengXian,DengXian_MSFontService,sans-serif" font-weight="400" font-size="24" transform="translate(606.235 330)">、一些插件</text><text font-family="DengXian,DengXian_MSFontService,sans-serif" font-weight="700" font-size="27" transform="translate(876.898 148)">Ruxgo</text><path d="M0 0 260.816 0.000104987" stroke="#000000" stroke-width="0.666667" stroke-miterlimit="8" stroke-dasharray="5.33333 2" fill="none" fill-rule="evenodd" transform="matrix(-1 0 0 1 1049.32 160.5)"/><text font-family="DengXian,DengXian_MSFontService,sans-serif" font-weight="700" font-size="27" transform="translate(573.756 151)">Make</text><rect x="802.5" y="198.5" width="221" height="432" stroke="#2F528F" stroke-width="1.33333" stroke-miterlimit="8" fill="#FFFFFF"/><text font-family="DengXian,DengXian_MSFontService,sans-serif" font-weight="400" font-size="24" transform="translate(825.359 451)">config_linux.toml</text><rect x="833.5" y="497.5" width="158" height="94" stroke="#2F528F" stroke-width="1.33333" stroke-miterlimit="8" fill="#FFFFFF"/><text font-family="DengXian,DengXian_MSFontService,sans-serif" font-weight="400" font-size="24" transform="translate(854.276 537)">RuxOS</text><text font-family="DengXian,DengXian_MSFontService,sans-serif" font-weight="400" font-size="24" transform="translate(922.276 537)">配置</text><text font-family="DengXian,DengXian_MSFontService,sans-serif" font-weight="400" font-size="24" transform="translate(888.276 566)">模块</text><rect x="833.5" y="222.5" width="158" height="42" stroke="#2F528F" stroke-width="1.33333" stroke-miterlimit="8" fill="#FFFFFF"/><text font-family="DengXian,DengXian_MSFontService,sans-serif" font-weight="400" font-size="24" transform="translate(869.442 250)">Target 1</text><rect x="833.5" y="273.5" width="159" height="36" stroke="#2F528F" stroke-width="1.33333" stroke-miterlimit="8" fill="#FFFFFF"/><text font-family="DengXian,DengXian_MSFontService,sans-serif" font-weight="400" font-size="24" transform="translate(869.603 298)">Target 2</text><rect x="833.5" y="352.5" width="158" height="39" stroke="#2F528F" stroke-width="1.33333" stroke-miterlimit="8" fill="#FFFFFF"/><text font-family="DengXian,DengXian_MSFontService,sans-serif" font-weight="400" font-size="24" transform="translate(869.193 379)">Target n</text><text font-family="DengXian,DengXian_MSFontService,sans-serif" font-weight="400" font-size="24" transform="matrix(6.12323e-17 1 -1 6.12323e-17 909.283 322)">...</text></g></svg>